<?xml version="1.0" encoding="utf-8"?>
<!-- Generator: Adobe Illustrator 19.2.1, SVG Export Plug-In . SVG Version: 6.00 Build 0)  -->
<svg version="1.1" id="Layer_1" xmlns="http://www.w3.org/2000/svg" xmlns:xlink="http://www.w3.org/1999/xlink" x="0px" y="0px"
	 viewBox="0 0 40 40" style="enable-background:new 0 0 40 40;" xml:space="preserve">
<style type="text/css">
	.st0{fill:#EA0808;}
	.st1{fill:#FDF7F7;}
	.st2{fill:#EA0606;}
	.st3{fill:#FDFAFA;}
	.st4{fill:#FAF2F2;}
	.st5{fill:#FAF0F0;}
</style>
<g>
	<g>
		<path class="st0" d="M39.5,20.3c0,10.7-8.5,18.4-17.3,19.2C9,40.7,1.9,30.5,0.8,23.5c-1-6.6,0.7-12.3,5.2-17.1
			C9.3,2.9,13.5,1,18.3,0.5C30.5-0.5,39.8,9.3,39.5,20.3z M37.2,20c0-9.7-7.8-17.5-17.4-17.5C10.3,2.4,2.5,10.3,2.5,20
			c0,9.7,7.8,17.6,17.3,17.6C29.5,37.5,37.3,29.7,37.2,20z"/>
		<path class="st1" d="M37.2,20c0,9.7-7.7,17.6-17.4,17.6c-9.5,0-17.3-7.9-17.3-17.6c0-9.7,7.8-17.5,17.3-17.5
			C29.4,2.4,37.2,10.3,37.2,20z M36,20c0-9-7.2-16.2-16.1-16.2C11,3.7,3.8,11,3.8,20c0,9,7.2,16.2,16.1,16.2C28.8,36.3,36,29,36,20z
			"/>
		<path class="st2" d="M36,20c0,9-7.2,16.3-16.1,16.3C11,36.2,3.8,29,3.8,20c0-9,7.2-16.3,16.1-16.3C28.8,3.7,35.9,11,36,20z
			 M23.1,30.7c0.6-0.2,1.6-0.5,2.4-1c0.6-0.3,0.9-1.1,0.4-1.9c-0.7-1-1.3-2.1-1.9-3.2c-0.5-0.7-1.1-0.9-1.9-0.5
			c-0.4,0.2-0.9,0.5-1.3,0.8c-0.4,0.3-0.7,0.3-1-0.1c-2.2-2-3.7-4.5-4.4-7.4c-0.1-0.3-0.1-0.6,0.3-0.7c0.5-0.2,1-0.6,1.5-0.9
			c0.6-0.4,0.8-1.1,0.5-1.7c-0.7-1.2-1.4-2.3-2.1-3.5c-0.3-0.5-1-0.7-1.5-0.5c-1.1,0.5-2,1.3-2.5,2.4c-0.6,1.4-0.7,2.8-0.5,4.3
			c0.3,1.8,1.1,3.5,1.9,5.1c1.4,2.7,3.2,5.1,5.7,7C19.9,29.8,21.2,30.5,23.1,30.7z M27.6,22.9c0.4,0.1,0.8,0.1,1.1,0.2
			c1.5-5.5-2-11.4-7.5-12.9c-0.1,0.3-0.2,0.7-0.4,1C25.7,12.9,28.6,17.5,27.6,22.9z M20.5,12.5c0,0.5-0.1,0.9-0.1,1.2
			c1.5,0.5,2.7,1.3,3.6,2.6c1.4,1.9,1.7,3.9,1.2,6.2c0.4,0.1,0.8,0.2,1.1,0.2C27.5,18.9,25.4,14,20.5,12.5z M24,22.1
			c1-2.7-0.9-6.4-3.7-7.2c-0.1,0.4-0.1,0.8-0.2,1.1c2,1,3,2.6,2.9,4.8C23.1,21.9,23.1,21.9,24,22.1z M22,21.3
			c0.4-1.6-0.6-3.7-2.2-4.2c-0.2,0.3-0.4,0.6-0.7,0.9c1.3,0.6,1.8,1.5,1.8,2.9C21.3,21.1,21.7,21.2,22,21.3z"/>
		<path class="st3" d="M23.1,30.7c-1.9-0.2-3.2-0.9-4.4-1.8c-2.5-1.8-4.2-4.3-5.7-7c-0.9-1.6-1.6-3.3-1.9-5.1
			c-0.2-1.5-0.1-2.9,0.5-4.3c0.5-1.1,1.4-1.9,2.5-2.4c0.5-0.2,1.2,0,1.5,0.5c0.7,1.2,1.4,2.3,2.1,3.5c0.4,0.6,0.2,1.3-0.5,1.7
			c-0.5,0.3-1,0.6-1.5,0.9c-0.4,0.2-0.4,0.4-0.3,0.7c0.7,2.9,2.1,5.4,4.4,7.4c0.4,0.3,0.6,0.3,1,0.1c0.4-0.3,0.8-0.5,1.3-0.8
			c0.8-0.4,1.4-0.2,1.9,0.5c0.7,1.1,1.3,2.1,1.9,3.2c0.5,0.8,0.2,1.6-0.4,1.9C24.7,30.2,23.7,30.5,23.1,30.7z"/>
		<path class="st4" d="M27.6,22.9c1-5.4-1.8-10.1-6.8-11.6c0.1-0.3,0.2-0.7,0.4-1c5.5,1.5,8.9,7.3,7.5,12.9
			C28.3,23.1,28,23,27.6,22.9z"/>
		<path class="st4" d="M20.5,12.5c4.9,1.5,7,6.4,5.8,10.2c-0.4-0.1-0.7-0.2-1.1-0.2c0.5-2.3,0.1-4.3-1.2-6.2
			c-0.9-1.2-2.1-2.1-3.6-2.6C20.4,13.3,20.5,12.9,20.5,12.5z"/>
		<path class="st4" d="M24,22.1c-1-0.2-1-0.2-1-1.2c0-2.2-0.9-3.8-2.9-4.8c0.1-0.4,0.1-0.8,0.2-1.1C23.1,15.7,25,19.4,24,22.1z"/>
		<path class="st5" d="M22,21.3c-0.4-0.1-0.7-0.3-1.1-0.4c0-1.3-0.5-2.3-1.8-2.9c0.2-0.3,0.5-0.6,0.7-0.9
			C21.4,17.6,22.5,19.7,22,21.3z"/>
	</g>
</g>
</svg>
